<?xml version="1.0" encoding="UTF-8" standalone="no"?>
<svg
   xmlns:dc="http://purl.org/dc/elements/1.1/"
   xmlns:cc="http://creativecommons.org/ns#"
   xmlns:rdf="http://www.w3.org/1999/02/22-rdf-syntax-ns#"
   xmlns:svg="http://www.w3.org/2000/svg"
   xmlns="http://www.w3.org/2000/svg"
   xmlns:sodipodi="http://sodipodi.sourceforge.net/DTD/sodipodi-0.dtd"
   xmlns:inkscape="http://www.inkscape.org/namespaces/inkscape"
   viewBox="0 0 24.621204 25.189584"
   version="1.1"
   id="svg3729"
   sodipodi:docname="spreadsheet.svg"
   inkscape:version="0.92.3 (2405546, 2018-03-11)"
   width="24.621204"
   height="25.189585">
  <metadata
     id="metadata3735">
    <rdf:RDF>
      <cc:Work
         rdf:about="">
        <dc:format>image/svg+xml</dc:format>
        <dc:type
           rdf:resource="http://purl.org/dc/dcmitype/StillImage" />
        <dc:title></dc:title>
      </cc:Work>
    </rdf:RDF>
  </metadata>
  <defs
     id="defs3733" />
  <sodipodi:namedview
     pagecolor="#ffffff"
     bordercolor="#666666"
     borderopacity="1"
     objecttolerance="10"
     gridtolerance="10"
     guidetolerance="10"
     inkscape:pageopacity="0"
     inkscape:pageshadow="2"
     inkscape:window-width="1920"
     inkscape:window-height="986"
     id="namedview3731"
     showgrid="false"
     inkscape:zoom="47.6875"
     inkscape:cx="10.947195"
     inkscape:cy="19.502988"
     inkscape:window-x="-11"
     inkscape:window-y="-11"
     inkscape:window-maximized="1"
     inkscape:current-layer="svg3729" />
  <g
     transform="matrix(1.831806,0,0,1.7199923,-132.65507,-41.084444)"
     id="g3727">
    <path
       d="m 24.321,1013.69 -7.918,1.397 v 10.247 l 7.918,1.397 z m 0.466,0.932 v 0.932 h 1.863 v 1.397 h -1.863 v 0.466 h 1.863 v 1.397 h -1.863 v 0.466 h 1.863 v 1.397 h -1.863 v 0.466 h 1.863 v 1.397 h -1.863 v 0.466 h 1.863 v 1.397 h -1.863 v 0.932 h 5.589 v -10.713 z m 2.329,0.932 h 2.329 v 1.397 h -2.329 z m 0,1.863 h 2.329 v 1.397 h -2.329 z m -5.284,0.335 c 0.085,0 0.131,-10e-4 0.131,0 0,0 -0.238,0.548 -0.539,1.193 l -0.553,1.164 0.553,1.164 c 0.3,0.636 0.539,1.181 0.539,1.208 0,0.056 -0.401,0.046 -0.742,-0.015 -0.226,-0.04 -0.237,-0.066 -0.524,-0.786 -0.164,-0.41 -0.322,-0.772 -0.349,-0.801 -0.028,-0.029 -0.187,0.282 -0.349,0.684 -0.162,0.402 -0.313,0.747 -0.335,0.771 -0.022,0.024 -0.221,0.024 -0.451,0 l -0.422,-0.044 0.509,-1.077 0.509,-1.077 -0.451,-1.033 c -0.247,-0.57 -0.451,-1.08 -0.451,-1.121 0,-0.045 0.171,-0.073 0.437,-0.073 h 0.437 l 0.247,0.699 c 0.139,0.383 0.28,0.714 0.306,0.742 0.026,0.028 0.199,-0.312 0.378,-0.757 l 0.32,-0.801 0.466,-0.029 c 0.128,0 0.25,-0.013 0.335,-0.015 z m 5.284,1.528 h 2.329 v 1.397 h -2.329 z m 0,1.863 h 2.329 v 1.397 h -2.329 z m 0,1.863 h 2.329 v 1.397 h -2.329 z"
       transform="matrix(0.92014,0,0,0.92014,57.57,-906.63)"
       id="path3725"
       inkscape:connector-curvature="0"
       style="color:#000000;fill:#4d4d4d;stroke:none" />
  </g>
</svg>
