<?xml version="1.0" standalone="no"?>
<!DOCTYPE svg PUBLIC "-//W3C//DTD SVG 20010904//EN"
 "http://www.w3.org/TR/2001/REC-SVG-20010904/DTD/svg10.dtd">
<svg version="1.0" xmlns="http://www.w3.org/2000/svg"
 width="1083.000000pt" height="1083.000000pt" viewBox="0 0 1083.000000 1083.000000"
 preserveAspectRatio="xMidYMid meet">
<metadata>
Created by potrace 1.11, written by Peter Selinger 2001-2013
</metadata>
<g transform="translate(0.000000,1083.000000) scale(0.100000,-0.100000)"
fill="#000000" stroke="none">
<path d="M0 5415 l0 -5415 5415 0 5415 0 0 5415 0 5415 -5415 0 -5415 0 0
-5415z m2220 1500 l0 -315 -220 0 -220 0 0 -1185 0 -1185 440 0 440 0 0 240 0
240 330 0 330 0 0 -555 0 -555 -1320 0 -1320 0 0 315 0 315 170 0 170 0 0
1185 0 1185 -170 0 -170 0 0 315 0 315 770 0 770 0 0 -315z m3617 292 c474
-76 728 -268 824 -622 19 -68 22 -108 23 -260 1 -158 -2 -191 -23 -270 -53
-201 -170 -361 -353 -483 l-39 -26 84 -41 c183 -89 325 -223 405 -382 35 -68
70 -205 82 -318 27 -245 -36 -519 -161 -702 -140 -205 -385 -362 -684 -437
-240 -61 -216 -59 -1257 -63 l-958 -4 0 316 0 315 170 0 170 0 0 1185 0 1185
-170 0 -170 0 0 316 0 315 978 -4 c847 -3 991 -6 1079 -20z m4313 -472 l0
-495 -330 0 -330 0 0 180 0 180 -240 0 -240 0 0 -1185 0 -1185 270 0 270 0 0
-315 0 -315 -920 0 -920 0 0 315 0 315 270 0 270 0 0 1185 0 1185 -245 0 -245
0 0 -180 0 -180 -330 0 -330 0 0 495 0 495 1525 0 1525 0 0 -495z"/>
<path d="M4852 6213 l3 -388 335 1 c448 1 537 17 643 114 68 62 108 146 115
242 13 180 -88 323 -266 378 -109 34 -182 40 -515 40 l-317 0 2 -387z"/>
<path d="M4850 4724 l0 -496 368 5 c411 5 462 12 609 82 182 88 273 270 243
485 -26 182 -130 300 -322 367 -129 45 -216 53 -570 53 l-328 0 0 -496z"/>
</g>
</svg>
